<?xml version="1.0" encoding="iso-8859-1"?>
<!-- Generator: Adobe Illustrator 19.0.0, SVG Export Plug-In . SVG Version: 6.00 Build 0)  -->
<svg version="1.1" id="Layer_1" xmlns="http://www.w3.org/2000/svg" xmlns:xlink="http://www.w3.org/1999/xlink" x="0px" y="0px"
	 viewBox="0 0 512 512" style="enable-background:new 0 0 512 512;" xml:space="preserve">
<circle style="fill:#A2DFE9;" cx="256" cy="256" r="256"/>
<rect x="168" y="456" style="fill:#CCCCCC;" width="176" height="8"/>
<polygon style="fill:#ADADAD;" points="312,456 200,456 208,400 304,400 "/>
<path style="fill:#CCCCCC;" d="M448,360v32c0,4.4-3.6,8-8,8H72c-4.4,0-8-3.6-8-8v-32H448z"/>
<rect id="SVGCleanerId_0" x="80" y="120" style="fill:#FFFFFF;" width="352" height="224"/>
<path style="fill:#3B3B3B;" d="M440,104H72c-4.4,0-8,3.6-8,8v248h384V112C448,107.6,444.4,104,440,104z M432,344H80V120h352V344z"/>
<g>
	<rect id="SVGCleanerId_0_1_" x="80" y="120" style="fill:#FFFFFF;" width="352" height="224"/>
</g>
<rect x="136" y="144" style="fill:#A2DFE9;" width="240" height="96"/>
<g>
	<rect x="264" y="264" style="fill:#CCCCCC;" width="112" height="8"/>
	<rect x="264" y="288" style="fill:#CCCCCC;" width="112" height="8"/>
	<rect x="264" y="312" style="fill:#CCCCCC;" width="112" height="8"/>
	<rect x="136" y="264" style="fill:#CCCCCC;" width="104" height="56"/>
</g>
<g>
</g>
<g>
</g>
<g>
</g>
<g>
</g>
<g>
</g>
<g>
</g>
<g>
</g>
<g>
</g>
<g>
</g>
<g>
</g>
<g>
</g>
<g>
</g>
<g>
</g>
<g>
</g>
<g>
</g>
</svg>
