<?xml version="1.0" encoding="iso-8859-1"?>
<!-- Generator: Adobe Illustrator 19.0.0, SVG Export Plug-In . SVG Version: 6.00 Build 0)  -->
<svg version="1.1" id="Layer_1" xmlns="http://www.w3.org/2000/svg" xmlns:xlink="http://www.w3.org/1999/xlink" x="0px" y="0px"
	 viewBox="0 0 512 512" style="enable-background:new 0 0 512 512;" xml:space="preserve">
<circle style="fill:#21D0C3;" cx="256" cy="256" r="256"/>
<rect x="55.202" y="62.408" style="fill:#FFFFFF;" width="401.596" height="273.147"/>
<path style="fill:#FF5B62;" d="M84.86,263.721c32.821-12.909,77.357-33.737,117.503-94.489l-12.219-8.855l36.261-10.545
	l-0.298,36.608l-10.811-7.834C191.829,211.552,157.33,253.567,84.86,263.721L84.86,263.721z"/>
<path style="fill:#FAD24D;" d="M379.009,115.125l-36.666,35.964l38.835,33.609c7.802-9.008,12.524-20.756,12.524-33.609
	C393.7,137.084,388.097,124.39,379.009,115.125L379.009,115.125z"/>
<path style="fill:#FF5B62;" d="M343.837,91.932v51.359l36.666-35.964C371.184,97.827,358.198,91.932,343.837,91.932z"/>
<path style="fill:#21D0C3;" d="M339.514,102.211c-28.365,0-51.359,22.993-51.359,51.359s22.994,51.359,51.359,51.359
	c15.513,0,29.42-6.877,38.836-17.748l-38.836-33.609V102.211z"/>
<path style="fill:#C9CACC;" d="M302.359,227.091h114.708v3.442H302.359V227.091z M302.359,249.676h66.025v3.442h-66.025V249.676z
	 M302.359,242.147h114.708v3.442H302.359V242.147z M302.359,234.62h114.708v3.441H302.359V234.62z"/>
<path style="fill:#D1D2D4;" d="M302.36,275.794h97.093v3.443H302.36V275.794z M302.36,298.38h46.698v3.441H302.36V298.38z
	 M302.36,290.85h82.293v3.443H302.36V290.85z M302.36,283.324h114.707v3.441H302.36V283.324z"/>
<path style="fill:#828282;" d="M39.196,59.173h433.608v12.944H39.196V59.173z M39.196,333.674h433.608v12.944H39.196V333.674z"/>
<path style="fill:#C9CACC;" d="M103.569,99.951h44.901v2.863h-44.901C103.569,102.814,103.569,99.951,103.569,99.951z
	 M103.569,93.688h78.009v2.863h-78.009V93.688z"/>
<rect x="87.09" y="93.398" style="fill:#FF5B62;" width="9.421" height="9.421"/>
<rect x="87.09" y="118.119" style="fill:#21D0C3;" width="9.421" height="9.421"/>
<rect x="87.09" y="140.196" style="fill:#FCB42A;" width="9.421" height="9.421"/>
<g>
	<path style="fill:#C9CACC;" d="M103.569,123.286h44.901v2.863h-44.901C103.569,126.15,103.569,123.286,103.569,123.286z
		 M103.569,117.023h78.009v2.863h-78.009V117.023z"/>
	<path style="fill:#C9CACC;" d="M103.569,146.623h44.901v2.863h-44.901C103.569,149.486,103.569,146.623,103.569,146.623z
		 M103.569,140.36h78.009v2.863h-78.009V140.36z"/>
</g>
<path style="fill:#666666;" d="M204.853,346.619h22.455l-42.324,86.869h-14.347L204.853,346.619z M248.49,346.619h15.022v106.207
	H248.49V346.619z M307.149,346.619h-22.455l42.324,86.869h14.347L307.149,346.619z"/>
<rect x="200.748" y="216.687" style="fill:#21D0C3;" width="13.26" height="100.194"/>
<rect x="177.813" y="239.692" style="fill:#FAD24D;" width="13.26" height="77.189"/>
<rect x="154.878" y="259.962" style="fill:#FF5B62;" width="13.26" height="56.919"/>
<rect x="131.952" y="285.692" style="fill:#21D0C3;" width="13.26" height="31.189"/>
<g>
</g>
<g>
</g>
<g>
</g>
<g>
</g>
<g>
</g>
<g>
</g>
<g>
</g>
<g>
</g>
<g>
</g>
<g>
</g>
<g>
</g>
<g>
</g>
<g>
</g>
<g>
</g>
<g>
</g>
</svg>
