<?xml version="1.0" encoding="iso-8859-1"?>
<!-- Generator: Adobe Illustrator 19.0.0, SVG Export Plug-In . SVG Version: 6.00 Build 0)  -->
<svg version="1.1" id="Layer_1" xmlns="http://www.w3.org/2000/svg" xmlns:xlink="http://www.w3.org/1999/xlink" x="0px" y="0px"
	 viewBox="0 0 512 512" style="enable-background:new 0 0 512 512;" xml:space="preserve">
<circle style="fill:#F33052;" cx="256" cy="256" r="256"/>
<g>
	<path style="fill:#FFFFFF;" d="M145.84,204.144V307.84h-19.68v-44.832H77.536v44.832h-19.68V204.144h19.68v42.32h48.624v-42.32
		L145.84,204.144L145.84,204.144z"/>
	<path style="fill:#FFFFFF;" d="M205.408,221.776v86.08h-19.68v-86.08h-29.936v-17.632h80.624v17.632L205.408,221.776
		L205.408,221.776z"/>
	<path style="fill:#FFFFFF;" d="M367.616,204.144V307.84h-19.664v-56.528c0-4.496,0.128-9.632,0.368-15.344l0.368-7.744l0.384-7.664
		h-0.592l-2.352,7.216l-2.288,7.216c-2.128,6.48-3.776,11.264-4.944,14.352l-22.8,58.496h-17.92l-23.024-58.048
		c-1.264-3.184-2.944-7.968-5.008-14.352l-2.336-7.216l-2.352-7.136h-0.608l0.368,7.52l0.384,7.616
		c0.304,5.872,0.448,10.912,0.448,15.104v56.528h-19.68V204.16h32.064l18.544,48.016c1.264,3.344,2.944,8.128,5.008,14.352
		l2.288,7.216l2.336,7.136h0.688l2.208-7.136l2.288-7.136c1.872-6.032,3.504-10.8,4.864-14.288l18.24-48.176L367.616,204.144
		L367.616,204.144z"/>
	<path style="fill:#FFFFFF;" d="M405.52,204.144v86.08h48.624v17.632h-68.32V204.16h19.696V204.144z"/>
</g>
<g>
</g>
<g>
</g>
<g>
</g>
<g>
</g>
<g>
</g>
<g>
</g>
<g>
</g>
<g>
</g>
<g>
</g>
<g>
</g>
<g>
</g>
<g>
</g>
<g>
</g>
<g>
</g>
<g>
</g>
</svg>
